# 3ds Max Wavefront OBJ Exporter v0.97b - (c)2007 guruware
# File Created: 08.03.2012 17:07:33

mtllib Models/iceplatform.mtl

#
# object Box001
#

#
# object Box002
#

v  0.3401 -3.7267 6.1656
v  -5.6365 -3.2757 -0.4407
v  -2.0709 -16.4781 1.2412
v  -0.0499 -4.7931 2.1945
v  -0.3569 -5.6323 -0.9308
v  19.1664 -1.7270 0.0639
v  1.0715 -1.7270 13.6124
v  11.3242 -1.7270 10.1166
v  -9.2571 -1.7270 -2.2796
v  -9.8506 -1.7270 -10.7755
v  0.0309 -1.7270 -4.6183
v  -2.0229 -4.8887 -0.7761
v  -6.9456 -2.6914 -0.3191
v  6.9760 -1.7270 -7.4061
v  -5.1554 5.1812 19.1993
v  0.0309 5.1812 19.1993
v  9.0477 6.1974 2.5374
v  -11.2894 5.2369 20.2594
v  -13.3557 5.1812 19.1993
v  -18.5309 5.1812 17.9099
v  -19.1045 5.1812 0.0639
v  -19.5023 5.1812 8.7565
v  15.4763 5.1812 18.1303
v  18.2187 5.1812 18.5695
v  18.1207 5.1812 10.2917
v  7.8964 5.1812 20.4923
v  19.7057 5.1812 0.0836
v  0.0224 5.1812 -19.2768
v  -10.4678 5.1812 -18.7877
v  -17.2327 5.1812 -18.2580
v  -18.9762 5.1812 -16.0488
v  18.7533 5.1812 -16.8831
v  16.8468 5.1812 -18.3170
v  9.9606 5.1812 -18.4947
v  6.7776 5.1812 -19.0716
v  -9.4943 -1.7270 9.3308
v  -0.4491 1.7271 21.4413
v  -16.8898 1.7271 14.4337
v  18.5708 1.7271 18.8325
v  20.4684 5.1721 4.4693
v  15.1472 -1.6869 -19.0716
v  1.0152 1.7271 -14.2453
v  -13.3733 1.8396 -18.3672
v  -11.4398 -0.4579 -0.2483
v  -15.4578 1.7271 -0.4718
v  -9.2407 -1.7270 3.1581
v  -9.1062 -13.8830 -0.1186
# 47 vertices

vn -0.0503 -0.9375 0.3442
vn -0.4619 -0.8865 0.0277
vn -0.0060 -0.9991 -0.0430
vn 0.6410 -0.7675 -0.0062
vn -0.1631 -0.9653 -0.2038
vn 0.1460 -0.9893 -0.0026
vn 0.0023 -0.9855 0.1697
vn 0.0000 -1.0000 -0.0000
vn 0.1555 -0.8773 -0.4540
vn -0.2074 -0.7996 -0.5636
vn -0.0541 -0.6699 -0.7405
vn 0.1262 -0.9892 -0.0742
vn 0.0932 -0.9149 -0.3928
vn 0.0153 0.9976 0.0680
vn 0.0104 0.9989 0.0451
vn 0.0450 0.9984 0.0350
vn -0.0198 0.9995 0.0262
vn -0.0172 0.9993 0.0320
vn -0.0231 0.9996 0.0182
vn -0.0239 0.9997 -0.0089
vn -0.0319 0.9995 0.0012
vn 0.0000 1.0000 -0.0000
vn 0.0712 0.9973 0.0187
vn -0.0110 0.9996 -0.0273
vn 0.0393 0.9988 -0.0276
vn 0.0137 0.9992 -0.0389
vn 0.0046 0.9990 -0.0434
vn 0.0041 0.9991 -0.0429
vn -0.1463 -0.9261 0.3479
vn -0.0295 -0.9379 0.3457
vn -0.1932 -0.2773 0.9411
vn -0.1497 -0.8178 0.5557
vn 0.0912 -0.9592 0.2675
vn 0.1389 -0.4207 0.8965
vn -0.2218 0.5032 0.8352
vn 0.0122 -0.8501 0.5265
vn -0.0069 -0.8755 0.4831
vn -0.2886 -0.6888 0.6650
vn -0.1541 -0.7704 0.6187
vn 0.1031 0.2655 0.9586
vn -0.0543 0.8438 0.5340
vn 0.2278 -0.3308 0.9158
vn 0.6003 -0.7940 0.0959
vn 0.8830 -0.4660 0.0561
vn 0.5434 0.6233 0.5624
vn 0.9591 -0.2791 -0.0481
vn 0.0013 -1.0000 -0.0022
vn 0.7657 -0.6300 -0.1298
vn 0.0148 0.9998 0.0153
vn 0.8845 0.4513 0.1182
vn 0.9937 0.1112 -0.0118
vn 0.8052 -0.5789 -0.1282
vn 0.0005 -1.0000 -0.0004
vn -0.2029 -0.9455 -0.2545
vn 0.0067 -0.9413 -0.3376
vn -0.1255 -0.9116 -0.3914
vn -0.1206 -0.3967 -0.9100
vn 0.3042 -0.8179 -0.4883
vn 0.2982 0.0208 -0.9543
vn -0.1408 -0.7926 -0.5933
vn 0.0605 0.0816 -0.9948
vn 0.1322 0.2008 -0.9707
vn 0.0256 0.1138 -0.9932
vn 0.1899 -0.1395 -0.9719
vn -0.0367 -0.8646 -0.5012
vn -0.5523 -0.8322 -0.0486
vn -0.6681 -0.6586 -0.3462
vn -0.6468 -0.7624 -0.0192
vn -0.5649 -0.8244 -0.0346
vn -0.5521 -0.8264 -0.1102
vn -0.4199 -0.9070 -0.0332
vn -0.8236 -0.5617 -0.0791
vn -0.6886 -0.6937 0.2111
vn -0.6364 -0.7700 -0.0453
vn -0.5089 -0.8524 -0.1201
vn -0.5603 -0.7004 -0.4422
vn -0.8162 -0.5765 -0.0386
vn -0.5475 -0.8358 0.0426
vn -0.0233 -0.9733 0.2285
vn -0.1110 -0.9890 0.0978
vn -0.9820 -0.1890 -0.0021
vn 0.9778 -0.2092 -0.0087
# 82 vertex normals

vt 0.5000 0.2560 0.0000
vt 0.8017 0.5000 0.0000
vt 0.6091 0.4314 0.0000
vt 0.5000 0.3926 0.0000
vt 0.5000 0.5000 0.0000
vt 0.0000 0.5000 0.0000
vt 0.5000 0.0000 0.0000
vt 0.0000 0.0000 0.0000
vt 1.0000 0.6014 0.0000
vt 1.0000 1.0000 0.0000
vt 0.5000 1.0000 0.0000
vt 0.5952 0.5000 0.0000
vt 0.8765 0.5000 0.0000
vt 0.0000 1.0000 0.0000
vt 0.3645 0.0000 0.0000
vt 0.2042 0.0000 0.0000
vt 0.1502 0.0000 0.0000
vt 0.0000 0.2781 0.0000
vt 0.8322 0.0000 0.0000
vt 1.0000 0.0000 0.0000
vt 1.0000 0.2256 0.0000
vt 0.7015 0.0000 0.0000
vt 1.0000 0.5000 0.0000
vt 0.2291 1.0000 0.0000
vt 0.0000 0.8016 0.0000
vt 1.0000 0.7308 0.0000
vt 0.7530 1.0000 0.0000
vt 0.6763 1.0000 0.0000
vt 0.3645 1.0000 0.0000
vt 0.2042 1.0000 0.0000
vt 0.1502 1.0000 0.0000
vt 0.8322 1.0000 0.0000
vt 0.7015 1.0000 0.0000
vt 0.2256 1.0000 0.0000
vt 0.7308 1.0000 0.0000
vt 0.3237 1.0000 0.0000
vt 0.2470 1.0000 0.0000
vt 0.7709 1.0000 0.0000
vt 0.3986 0.0000 0.0000
vt 0.5000 0.1837 0.0000
vt 0.6734 0.0000 0.0000
vt 0.1984 1.0000 0.0000
vt 0.7219 1.0000 0.0000
vt 1.0000 0.3266 0.0000
# 44 texture coords

g Box002
usemtl Material__46
s 2
f 1/1/1 2/2/2 3/3/3 
f 3/3/3 4/4/4 1/1/1 
f 4/4/4 5/5/5 6/6/6 
f 1/1/1 4/4/4 6/6/6 
f 7/7/7 1/1/1 6/6/6 
f 7/7/7 6/6/6 8/8/8 
f 9/9/9 10/10/8 11/11/10 
f 11/11/10 5/5/5 12/12/11 
f 9/9/9 11/11/10 12/12/11 
f 9/9/9 12/12/11 2/2/2 
f 9/9/9 2/2/2 13/13/12 
f 5/5/5 11/11/10 14/14/13 
f 14/14/13 6/6/6 5/5/5 
s 4
f 15/15/14 16/7/15 17/5/16 
f 18/16/17 15/15/14 17/5/16 
f 19/17/18 18/16/17 17/5/16 
f 20/8/19 19/17/18 17/5/16 
f 17/5/16 21/6/20 22/18/21 
f 20/8/19 17/5/16 22/18/21 
f 23/19/22 24/20/22 25/21/22 
f 26/22/22 23/19/22 25/21/22 
f 16/7/15 26/22/22 25/21/22 
f 16/7/15 25/21/22 27/23/23 
f 16/7/15 27/23/23 17/5/16 
f 21/6/20 17/5/16 28/11/24 
f 21/6/20 28/11/24 29/24/22 
f 29/24/22 30/14/22 31/25/22 
f 21/6/20 29/24/22 31/25/22 
f 17/5/16 27/23/23 32/26/25 
f 17/5/16 32/26/25 33/10/26 
f 17/5/16 33/10/26 34/27/27 
f 17/5/16 34/27/27 35/28/28 
f 17/5/16 35/28/28 28/11/24 
s 8
f 36/8/29 7/7/30 37/5/31 
f 37/5/31 38/6/32 36/8/29 
f 7/7/30 8/20/33 39/23/34 
f 39/23/34 37/5/31 7/7/30 
f 38/6/32 37/5/31 16/11/35 
f 38/6/32 16/11/35 15/29/36 
f 38/6/32 15/29/36 18/30/37 
f 38/6/32 18/30/37 19/31/38 
f 38/6/32 19/31/38 20/14/39 
f 37/5/31 39/23/34 24/10/40 
f 37/5/31 24/10/40 23/32/41 
f 37/5/31 23/32/41 26/33/42 
f 37/5/31 26/33/42 16/11/35 
s 16
f 8/8/43 6/7/44 40/5/45 
f 40/5/45 39/6/46 8/8/43 
f 6/7/44 14/20/47 41/23/48 
f 41/23/48 40/5/45 6/7/44 
f 39/6/46 40/5/45 27/11/49 
f 39/6/46 27/11/49 25/34/50 
f 39/6/46 25/34/50 24/14/51 
f 40/5/45 41/23/48 33/10/52 
f 40/5/45 33/10/52 32/35/53 
f 40/5/45 32/35/53 27/11/49 
s 32
f 14/8/54 11/7/55 42/5/56 
f 42/5/56 41/6/57 14/8/54 
f 11/7/55 10/20/58 43/23/59 
f 43/23/59 42/5/56 11/7/55 
f 41/6/57 42/5/56 28/11/60 
f 41/6/57 28/11/60 35/36/61 
f 41/6/57 35/36/61 34/37/62 
f 41/6/57 34/37/62 33/14/63 
f 42/5/56 43/23/59 30/10/64 
f 42/5/56 30/10/64 29/38/65 
f 42/5/56 29/38/65 28/11/60 
s 64
f 10/8/66 9/39/67 44/40/68 
f 10/8/66 44/40/68 45/5/69 
f 10/8/66 45/5/69 43/6/70 
f 36/20/71 38/23/72 45/5/69 
f 36/20/71 45/5/69 44/40/68 
f 46/41/73 36/20/71 44/40/68 
f 43/6/70 45/5/69 21/11/74 
f 43/6/70 21/11/74 31/42/75 
f 43/6/70 31/42/75 30/14/76 
f 45/5/69 38/23/72 20/10/77 
f 45/5/69 20/10/77 22/43/78 
f 45/5/69 22/43/78 21/11/74 
s 2
f 46/44/79 13/13/12 2/2/2 
f 36/20/80 46/44/79 2/2/2 
f 7/7/7 36/20/80 2/2/2 
f 1/1/1 7/7/7 2/2/2 
f 2/2/2 12/12/11 3/3/3 
f 4/4/4 3/3/3 12/12/11 
f 12/12/11 5/5/5 4/4/4 
s 64
f 44/40/68 47/7/81 46/41/73 
s 2
f 46/44/79 47/23/82 13/13/12 
f 13/13/12 47/23/82 9/9/9 
s 64
f 9/39/67 47/7/81 44/40/68 
# 90 faces

