# 3ds Max Wavefront OBJ Exporter v0.97b - (c)2007 guruware
# File Created: 18.03.2012 14:03:04

mtllib Models/lightning.mtl

#
# object Box001
#

v  3.9714 3.8525 -0.0950
v  -4.0224 1.8645 -0.1041
v  -4.0236 1.8645 0.4048
v  3.9587 3.8525 0.4140
v  -0.6075 -0.0104 -1.0175
v  -0.6654 -0.0104 1.3182
v  -4.0185 -2.8500 -0.0308
v  -4.0275 -2.8500 0.3315
v  3.9655 -0.4104 -0.0217
v  3.9646 -0.4104 0.3406
v  1.1513 1.6064 -1.0084
v  1.0933 1.6064 1.3273
# 12 vertices

vn 0.8398 0.4311 -0.3299
vn -0.9429 0.1491 -0.2977
vn -0.9449 0.1506 0.2906
vn 0.8361 0.4314 0.3388
vn -0.2799 -0.3546 -0.8921
vn -0.2934 -0.3617 0.8849
vn -0.8123 -0.4605 -0.3578
vn -0.8163 -0.4600 0.3495
vn 0.9476 -0.1850 -0.2606
vn 0.9458 -0.1830 0.2681
vn 0.3484 0.3447 -0.8717
vn 0.3348 0.3385 0.8794
# 12 vertex normals

vt 1.0000 1.0000 0.0000
vt 0.0000 0.5341 0.0000
vt 0.4632 0.5329 0.0000
vt 0.0000 0.0000 0.0000
vt 1.0000 0.6474 0.0000
vt 0.6327 0.6439 0.0000
# 6 texture coords

g Box001
usemtl Material__46
s 1
f 1/1/1 2/2/2 3/2/3 
f 3/2/3 4/1/4 1/1/1 
f 2/2/2 5/3/5 6/3/6 
f 6/3/6 3/2/3 2/2/2 
f 5/3/5 7/4/7 8/4/8 
f 8/4/8 6/3/6 5/3/5 
f 7/4/7 9/5/9 10/5/10 
f 10/5/10 8/4/8 7/4/7 
f 9/5/9 11/6/11 12/6/12 
f 12/6/12 10/5/10 9/5/9 
f 11/6/11 1/1/1 4/1/4 
f 4/1/4 12/6/12 11/6/11 
f 5/3/5 11/6/11 9/5/9 
f 9/5/9 7/4/7 5/3/5 
f 11/6/11 5/3/5 2/2/2 
f 2/2/2 1/1/1 11/6/11 
f 8/4/8 10/5/10 6/3/6 
f 10/5/10 12/6/12 6/3/6 
f 6/3/6 12/6/12 3/2/3 
f 12/6/12 4/1/4 3/2/3 
# 20 faces

