# 3ds Max Wavefront OBJ Exporter v0.97b - (c)2007 guruware
# File Created: 03.02.2012 13:30:00

mtllib Models/platform.mtl

#
# object Box001
#

v  -8.5818 -5.8356 8.5818
v  -8.5818 -5.8356 -8.5818
v  8.5818 -5.8356 -8.5818
v  8.5818 -5.8356 8.5818
v  -16.2241 5.5256 16.2241
v  16.2241 5.5256 16.2241
v  16.2241 5.5256 -16.2241
v  -16.2241 5.5256 -16.2241
v  -18.0583 -0.1204 18.0583
v  18.0583 -0.1204 18.0583
v  18.5629 1.5027 18.5629
v  -18.5629 1.5027 18.5629
v  18.5629 3.1635 18.5629
v  -18.5629 3.1635 18.5629
v  17.3855 4.6662 17.3855
v  -17.3855 4.6662 17.3855
v  18.0583 6.3420 18.0583
v  -18.0583 6.3420 18.0583
v  18.0583 -0.1204 -18.0583
v  18.5629 1.5027 -18.5629
v  18.5629 3.1635 -18.5629
v  17.3855 4.6662 -17.3855
v  18.0583 6.3420 -18.0583
v  -18.0583 -0.1204 -18.0583
v  -18.5629 1.5027 -18.5629
v  -18.5629 3.1635 -18.5629
v  -17.3855 4.6662 -17.3855
v  -18.0583 6.3420 -18.0583
v  16.2241 6.3420 16.2241
v  -16.2241 6.3420 16.2241
v  16.2241 6.3420 -16.2241
v  -16.2241 6.3420 -16.2241
v  -16.2241 -0.1204 -16.2241
v  -16.2241 -0.1204 16.2241
v  16.2241 -0.1204 -16.2241
v  16.2241 -0.1204 16.2241
v  -16.2241 -1.7533 -16.2241
v  -16.2241 -1.7533 16.2241
v  16.2241 -1.7533 -16.2241
v  16.2241 -1.7533 16.2241
# 40 vertices

vn 0.0000 -1.0000 -0.0000
vn 0.0000 1.0000 -0.0000
vn 0.0000 -0.3834 0.9236
vn 0.0000 -0.1696 0.9855
vn 0.0000 0.2936 0.9559
vn 0.0000 0.1901 0.9818
vn 0.0000 -0.4725 0.8813
vn 0.9236 -0.3834 -0.0000
vn 0.9855 -0.1696 -0.0000
vn 0.9559 0.2936 -0.0000
vn 0.9818 0.1901 -0.0000
vn 0.9818 0.1901 0.0000
vn 0.8813 -0.4725 0.0000
vn 0.0000 -0.3834 -0.9236
vn 0.0000 -0.1696 -0.9855
vn 0.0000 0.2936 -0.9559
vn 0.0000 0.1901 -0.9818
vn 0.0000 -0.4725 -0.8813
vn -0.9236 -0.3834 -0.0000
vn -0.9855 -0.1696 -0.0000
vn -0.9559 0.2936 -0.0000
vn -0.9818 0.1901 -0.0000
vn -0.9818 0.1901 0.0000
vn -0.8813 -0.4725 0.0000
vn -0.0000 1.0000 -0.0000
vn 0.0000 0.0000 -1.0000
vn -1.0000 0.0000 -0.0000
vn 0.0000 0.0000 1.0000
vn 1.0000 0.0000 -0.0000
vn -0.3714 -0.9285 -0.0000
vn 0.0000 -0.9285 -0.3714
vn 0.3714 -0.9285 -0.0000
vn 0.0000 -0.9285 0.3714
# 33 vertex normals

vt 1.0000 0.0000 0.0000
vt 1.0000 1.0000 0.0000
vt 0.0000 1.0000 0.0000
vt 0.0000 0.0000 0.0000
vt 1.0000 0.2500 0.0000
vt 0.0000 0.2500 0.0000
vt 1.0000 0.5000 0.0000
vt 0.0000 0.5000 0.0000
vt 1.0000 0.7500 0.0000
vt 0.0000 0.7500 0.0000
# 10 texture coords

g Box001
usemtl Material__92
s off
f 1/1/1 2/2/1 3/3/1 
f 3/3/1 4/4/1 1/1/1
g Box002
usemtl Material__79
s 4
f 5/4/2 6/1/2 7/2/2 
f 7/2/2 8/3/2 5/4/2
g Box001
usemtl Material__92
s 8
f 9/4/3 10/1/3 11/5/4 
f 11/5/4 12/6/4 9/4/3 
f 12/6/4 11/5/4 13/7/5 
f 13/7/5 14/8/5 12/6/4 
f 14/8/5 13/7/5 15/9/6 
f 15/9/6 16/10/6 14/8/5 
f 16/10/6 15/9/6 17/2/7 
f 17/2/7 18/3/7 16/10/6 
s 16
f 10/4/8 19/1/8 20/5/9 
f 20/5/9 11/6/9 10/4/8 
f 11/6/9 20/5/9 21/7/10 
f 21/7/10 13/8/10 11/6/9 
f 13/8/10 21/7/10 22/9/11 
f 22/9/11 15/10/12 13/8/10 
f 15/10/12 22/9/11 23/2/13 
f 23/2/13 17/3/13 15/10/12 
s 32
f 19/4/14 24/1/14 25/5/15 
f 25/5/15 20/6/15 19/4/14 
f 20/6/15 25/5/15 26/7/16 
f 26/7/16 21/8/16 20/6/15 
f 21/8/16 26/7/16 27/9/17 
f 27/9/17 22/10/17 21/8/16 
f 22/10/17 27/9/17 28/2/18 
f 28/2/18 23/3/18 22/10/17 
s 64
f 24/4/19 9/1/19 12/5/20 
f 12/5/20 25/6/20 24/4/19 
f 25/6/20 12/5/20 14/7/21 
f 14/7/21 26/8/21 25/6/20 
f 26/8/21 14/7/21 16/9/22 
f 16/9/22 27/10/23 26/8/21 
f 27/10/23 16/9/22 18/2/24 
f 18/2/24 28/3/24 27/10/23 
s off
f 18/3/2 17/2/2 29/1/2 
f 29/1/2 30/4/2 18/3/2 
f 17/3/25 23/2/25 31/2/25 
f 31/2/2 29/1/2 17/3/2 
f 23/3/2 28/2/2 32/3/2 
f 32/3/2 31/2/2 23/3/2 
f 28/3/25 18/2/25 30/4/25 
f 30/4/2 32/3/2 28/3/2 
f 30/4/26 29/1/26 6/1/26 
f 6/1/26 5/4/26 30/4/26 
f 29/1/27 31/2/27 7/2/27 
f 7/2/27 6/1/27 29/1/27 
f 31/2/28 32/3/28 8/3/28 
f 8/3/28 7/2/28 31/2/28 
f 32/3/29 30/4/29 5/4/29 
f 5/4/29 8/3/29 32/3/29 
f 9/1/1 24/4/1 33/2/1 
f 33/2/1 34/1/1 9/1/1 
f 24/1/1 19/4/1 35/3/1 
f 35/3/1 33/2/1 24/1/1 
f 19/1/1 10/4/1 36/4/1 
f 36/4/1 35/3/1 19/1/1 
f 10/1/1 9/4/1 34/1/1 
f 34/1/1 36/4/1 10/1/1 
f 34/1/27 33/2/27 37/2/27 
f 37/2/27 38/1/27 34/1/27 
f 33/2/26 35/3/26 39/3/26 
f 39/3/26 37/2/26 33/2/26 
f 35/3/29 36/4/29 40/4/29 
f 40/4/29 39/3/29 35/3/29 
f 36/4/28 34/1/28 38/1/28 
f 38/1/28 40/4/28 36/4/28 
f 38/1/30 37/2/30 2/2/30 
f 2/2/30 1/1/30 38/1/30 
f 37/2/31 39/3/31 3/3/31 
f 3/3/31 2/2/31 37/2/31 
f 39/3/32 40/4/32 4/4/32 
f 4/4/32 3/3/32 39/3/32 
f 40/4/33 38/1/33 1/1/33 
f 1/1/33 4/4/33 40/4/33 
# 76 faces

