# 3ds Max Wavefront OBJ Exporter v0.97b - (c)2007 guruware
# File Created: 12.03.2012 11:29:02

mtllib Models/waterlily.mtl

#
# object Plane001
#

v  -22.9598 0.0000 22.9276
v  -8.1454 0.0000 24.4361
v  -4.8515 -2.3183 7.1693
v  -24.4361 0.0000 8.1454
v  8.1454 0.0000 24.4361
v  10.0345 -2.3183 7.1693
v  19.6768 0.0000 19.6768
v  24.4361 0.0000 8.1454
v  -4.8515 -2.3183 -7.7167
v  -24.4361 0.0000 -8.1454
v  10.0345 -2.3183 -7.7167
v  24.4361 0.0000 -12.2196
v  -8.1454 0.0000 -24.4361
v  -19.6768 0.0000 -19.6768
v  12.9125 0.0000 -24.4361
v  14.3797 0.0000 -13.4198
# 16 vertices

vn 0.0693 0.9954 -0.0668
vn 0.0072 0.9913 -0.1317
vn 0.0443 0.9976 -0.0525
vn 0.1173 0.9931 -0.0058
vn -0.0368 0.9923 -0.1180
vn -0.0794 0.9945 -0.0689
vn 0.0000 1.0000 -0.0000
vn -0.1332 0.9900 -0.0463
vn 0.0545 0.9965 0.0633
vn 0.1000 0.9944 0.0338
vn -0.0852 0.9933 0.0776
vn -0.1302 0.9872 0.0920
vn 0.0410 0.9931 0.1098
vn -0.0800 0.9891 0.1234
vn -0.2442 0.9489 0.1997
# 15 vertex normals

vt 0.0000 0.0000 0.0000
vt 0.3333 0.0000 0.0000
vt 0.3333 0.3333 0.0000
vt 0.0000 0.3333 0.0000
vt 0.6667 0.0000 0.0000
vt 0.6667 0.3333 0.0000
vt 1.0000 0.0000 0.0000
vt 1.0000 0.3333 0.0000
vt 0.3333 0.6667 0.0000
vt 0.0000 0.6667 0.0000
vt 0.6667 0.6667 0.0000
vt 1.0000 0.6667 0.0000
vt 0.3333 1.0000 0.0000
vt 0.0000 1.0000 0.0000
vt 0.6667 1.0000 0.0000
vt 1.0000 1.0000 0.0000
# 16 texture coords

g Plane001
usemtl Material__46
s 1
f 1/1/1 2/2/2 3/3/3 
f 3/3/3 4/4/4 1/1/1 
f 2/2/2 5/5/5 6/6/6 
f 6/6/6 3/3/3 2/2/2 
f 5/5/5 7/7/7 8/8/8 
f 8/8/8 6/6/6 5/5/5 
f 4/4/4 3/3/3 9/9/9 
f 9/9/9 10/10/10 4/4/4 
f 3/3/3 6/6/6 11/11/11 
f 11/11/11 9/9/9 3/3/3 
f 6/6/6 8/8/8 12/12/12 
f 12/12/12 11/11/11 6/6/6 
f 10/10/10 9/9/9 13/13/13 
f 13/13/13 14/14/7 10/10/10 
f 9/9/9 11/11/11 15/15/14 
f 15/15/14 13/13/13 9/9/9 
f 11/11/11 12/12/12 16/16/15 
f 16/16/15 15/15/14 11/11/11 
# 18 faces

#
# object Cylinder001
#

v  18.1792 -246.1843 -22.9087
v  16.8496 -246.1843 -23.6763
v  16.8496 -165.0094 -23.6763
v  18.1792 -165.0094 -22.9087
v  16.8496 -246.1843 -22.1410
v  16.8496 -165.0094 -22.1410
v  14.2455 -83.8345 -17.2065
v  15.5751 -83.8345 -16.4388
v  14.2455 -83.8345 -15.6712
v  7.1272 -2.6597 -8.2243
v  8.4568 -2.6597 -7.4566
v  7.1272 -2.6597 -6.6889
# 12 vertices

vn 1.0000 0.0000 -0.0000
vn -0.5000 0.0000 -0.8660
vn -0.4846 0.0272 -0.8743
vn 0.9996 0.0176 -0.0211
vn -0.5000 0.0000 0.8660
vn -0.5027 -0.0434 0.8634
vn -0.4877 0.0554 -0.8713
vn 0.9982 0.0600 -0.0040
vn -0.4885 -0.1132 0.8652
vn -0.5627 0.0420 -0.8256
vn 0.9947 0.0801 0.0647
vn -0.5038 -0.1385 0.8526
vn 0.0000 -1.0000 -0.0000
vn 0.0000 1.0000 -0.0000
# 14 vertex normals

vt 0.7500 0.0000 1.0000
vt 1.0833 0.0000 1.0000
vt 1.0833 0.3333 1.0000
vt 0.7500 0.3333 1.0000
vt 0.0833 0.0000 1.0000
vt 0.4167 0.0000 1.0000
vt 0.4167 0.3333 1.0000
vt 0.0833 0.3333 1.0000
vt 1.0833 0.6667 1.0000
vt 0.7500 0.6667 1.0000
vt 0.4167 0.6667 1.0000
vt 0.0833 0.6667 1.0000
vt 1.0833 1.0000 1.0000
vt 0.7500 1.0000 1.0000
vt 0.4167 1.0000 1.0000
vt 0.0833 1.0000 1.0000
vt 0.9330 0.2500 -0.2500
vt 0.0670 0.2500 -0.2500
vt 0.5000 1.0000 -0.2500
vt 0.5000 1.0000 0.2500
vt 0.0670 0.2500 0.2500
vt 0.9330 0.2500 0.2500
# 22 texture coords

g Cylinder001
usemtl Material__47
s 8
f 17/17/16 18/18/17 19/19/18 
f 19/19/18 20/20/19 17/17/16 
f 18/21/17 21/22/20 22/23/21 
f 22/23/21 19/24/18 18/21/17 
f 21/22/20 17/17/16 20/20/19 
f 20/20/19 22/23/21 21/22/20 
f 20/20/19 19/19/18 23/25/22 
f 23/25/22 24/26/23 20/20/19 
f 19/24/18 22/23/21 25/27/24 
f 25/27/24 23/28/22 19/24/18 
f 22/23/21 20/20/19 24/26/23 
f 24/26/23 25/27/24 22/23/21 
f 24/26/23 23/25/22 26/29/25 
f 26/29/25 27/30/26 24/26/23 
f 23/28/22 25/27/24 28/31/27 
f 28/31/27 26/32/25 23/28/22 
f 25/27/24 24/26/23 27/30/26 
f 27/30/26 28/31/27 25/27/24 
s 1
f 21/33/28 18/34/28 17/35/28 
f 27/36/29 26/37/29 28/38/29 
# 20 faces

